<?xml version="1.0" standalone="no"?><!DOCTYPE svg PUBLIC "-//W3C//DTD SVG 1.1//EN" "http://www.w3.org/Graphics/SVG/1.1/DTD/svg11.dtd"><svg class="icon" width="200px" height="199.80px" viewBox="0 0 1025 1024" version="1.1" xmlns="http://www.w3.org/2000/svg"><path d="M782.791111 925.013333H229.831111c-56.888889 0-102.4-46.648889-102.4-102.4v-34.133333c0-110.364444 86.471111-201.386667 196.835556-207.075556l12.515555-1.137777 7.964445 10.24c42.097778 54.613333 101.262222 86.471111 161.564444 86.471111 61.44 0 120.604444-31.857778 162.702222-86.471111l7.964445-10.24 12.515555 1.137777c110.364444 5.688889 196.835556 95.573333 196.835556 207.075556v34.133333c-1.137778 55.751111-46.648889 102.4-103.537778 102.4z m-468.764444-295.822222c-79.644444 10.24-139.946667 77.368889-139.946667 158.151111v34.133334c0 30.72 25.031111 55.751111 55.751111 55.751111h552.96c30.72 0 55.751111-25.031111 55.751111-55.751111v-34.133334c0-81.92-60.302222-149.048889-139.946666-158.151111-50.062222 60.302222-119.466667 94.435556-191.146667 94.435556s-142.222222-34.133333-193.422222-94.435556zM506.311111 657.635556c-111.502222 0-201.386667-110.364444-201.386667-245.76 0-135.395556 89.884444-245.76 201.386667-245.76s201.386667 110.364444 201.386667 245.76c0 135.395556-89.884444 245.76-201.386667 245.76z m0-444.871112C420.977778 212.764444 352.711111 301.511111 352.711111 411.875556s68.266667 199.111111 153.6 199.111111S659.911111 521.102222 659.911111 411.875556s-68.266667-199.111111-153.6-199.111112zM1000.106667 702.008889c-13.653333 0-23.893333-10.24-23.893334-23.893333V648.533333c0-69.404444-51.2-127.431111-119.466666-136.533333-9.102222 10.24-18.204444 19.342222-27.306667 28.444444-10.24 9.102222-25.031111 7.964444-32.995556-2.275555-9.102222-10.24-7.964444-25.031111 2.275556-32.995556 10.24-9.102222 20.48-19.342222 29.582222-30.72l7.964445-10.24 12.515555 1.137778C946.631111 468.764444 1024 549.546667 1024 648.533333v29.582223c0 13.653333-10.24 23.893333-23.893333 23.893333zM806.684444 468.764444c-4.551111 0-9.102222-1.137778-13.653333-4.551111-10.24-7.964444-13.653333-21.617778-5.688889-32.995555 21.617778-31.857778 32.995556-71.68 32.995556-113.777778 0-94.435556-59.164444-171.804444-131.982222-171.804444-13.653333 0-23.893333-10.24-23.893334-23.893334s10.24-23.893333 23.893334-23.893333c98.986667 0 179.768889 97.848889 179.768888 218.453333 0 51.2-14.791111 101.262222-42.097777 141.084445-4.551111 7.964444-12.515556 11.377778-19.342223 11.377777zM23.893333 702.008889c-13.653333 0-23.893333-10.24-23.893333-23.893333V648.533333c0-98.986667 77.368889-179.768889 176.355556-184.32l12.515555-1.137777 7.964445 10.24c9.102222 11.377778 18.204444 21.617778 29.582222 30.72 10.24 9.102222 11.377778 23.893333 2.275555 32.995555-9.102222 10.24-23.893333 11.377778-32.995555 2.275556-10.24-7.964444-19.342222-18.204444-27.306667-28.444445-68.266667 9.102222-119.466667 67.128889-119.466667 136.533334v29.582222c-1.137778 14.791111-12.515556 25.031111-25.031111 25.031111zM217.315556 468.764444c-7.964444 0-14.791111-3.413333-19.342223-10.24-27.306667-39.822222-42.097778-88.746667-42.097777-141.084444 0-120.604444 80.782222-218.453333 179.768888-218.453333 13.653333 0 23.893333 10.24 23.893334 23.893333s-10.24 23.893333-23.893334 23.893333c-72.817778 0-131.982222 77.368889-131.982222 171.804445 0 42.097778 11.377778 81.92 32.995556 113.777778 6.826667 10.24 4.551111 25.031111-5.688889 32.995555-4.551111 2.275556-9.102222 3.413333-13.653333 3.413333z" /></svg>